{"title":"IMPACT.WRESTLING.2012.03.08.HDTV.XviD-FICEK9","uid":7120392,"size":782377544,"categoryP":"video","categoryS":"tv_shows","magnet":"?xt=urn:btih:7b55e77eec4af04cb9d1552d1b6905bce8769c53&amp;dn=IMPACT.WRESTLING.2012.03.08.HDTV.XviD-FICEK9&amp;tr=udp%3A%2F%2Ftracker.openbittorrent.com%3A80&amp;tr=udp%3A%2F%2Fopen.demonii.com%3A1337&amp;tr=udp%3A%2F%2Ftracker.coppersurfer.tk%3A6969&amp;tr=udp%3A%2F%2Fexodus.desync.com%3A6969","seeders":2,"leechers":0,"uploader":"FICEK9","files":2,"time":1332349870,"description":"      Complete name : IMPACT.WRESTLING.2012.03.08.HDTV.XviD-FICEK9.avi\n      Format : AVI\n      Format/Info : Audio Video Interleave\n      File size : 746 MiB\n      Duration : 1h 23mn\n      Overall bit rate : 1 242 Kbps\n      Writing application : MEncoder SVN-r30881(20100311-gcc4.3.3)\n      Writing library : MPlayer\n   Video\n      Format : MPEG-4 Visual\n      Format profile : Streaming Video@L1\n      Format settings, BVOP : Yes\n      Format settings, QPel : No\n      Format settings, GMC : No warppoints\n      Format settings, Matrix : Default (H.263)\n      Codec ID : XVID\n      Codec ID/Hint : XviD\n      Duration : 1h 23mn\n      Bit rate : 1 103 Kbps\n      Width : 624 pixels\n      Height : 352 pixels\n      Display aspect ratio : 16/9\n      Frame rate : 29.970 fps\n      Resolution : 24 bits\n      Colorimetry : 4:2:0\n      Scan type : Progressive\n      Bits/(Pixel*Frame) : 0.168\n      Stream size : 663 MiB (89%)\n      Writing library : XviD 1.2.1 (UTC 2008-12-04)\n   Audio\n      Format : MPEG Audio\n      Format version : Version 1\n      Format profile : Layer 3\n      Codec ID : 55\n      Codec ID/Hint : MP3\n      Duration : 1h 23mn\n      Bit rate mode : Variable\n      Bit rate : 125 Kbps\n      Channel(s) : 2 channels\n      Sampling rate : 48.0 KHz\n      Resolution : 16 bits\n      Stream size : 75.1 MiB (10%)\n      Alignment : Aligned on interleaves\n      Interleave, duration : 24 ms (0.72 video frame)\n      Interleave, preload duration : 482 ms","torrent":{"xt":"urn:btih:7b55e77eec4af04cb9d1552d1b6905bce8769c53","amp;dn":"IMPACT.WRESTLING.2012.03.08.HDTV.XviD-FICEK9","amp;tr":["udp%3A%2F%2Ftracker.openbittorrent.com%3A80","udp%3A%2F%2Fopen.demonii.com%3A1337","udp%3A%2F%2Ftracker.coppersurfer.tk%3A6969","udp%3A%2F%2Fexodus.desync.com%3A6969"],"infoHash":"7b55e77eec4af04cb9d1552d1b6905bce8769c53","infoHashBuffer":{"type":"Buffer","data":[123,85,231,126,236,74,240,76,185,209,85,45,27,105,5,188,232,118,156,83]},"announce":[],"urlList":[]}}